# xmcd
#
# Track frame offsets:
#	150
#	44622
#	97563
#	129557
#	172966
#	202835
#	231070
#	264695
#	300906
#
# Disc length: 4363
#
# Revision: 1
# Processed by: cddbd v1.5.1PL0 Copyright (c) Steve Scherf et al.
# Submitted via: ExactAudioCopy v0.90b4
# Normalized: r0:TRMNUM
#
DISCID=66110909
DTITLE=Stevie Ray Vaughan - Let The Good Times Roll
DYEAR=1985
DGENRE=Blues
TTITLE0=Scuttle Buttin-Say What
TTITLE1=Aint Gonna Give Up On Love
TTITLE2=Change It
TTITLE3=Voodoo Chile
TTITLE4=Mary Had A Little Lamb
TTITLE5=Things That I Used To Do
TTITLE6=Cold Shot
TTITLE7=Unreleased Song
TTITLE8=Pride And Joy
EXTD=
EXTT0=
EXTT1=
EXTT2=
EXTT3=
EXTT4=
EXTT5=
EXTT6=
EXTT7=
EXTT8=
PLAYORDER=
